 <svg height="30" width="30" version="1.1" id="Layer_1" xmlns="http://www.w3.org/2000/svg" xmlns:xlink="http://www.w3.org/1999/xlink" x="0px" y="0px" viewBox="0 0 406.5 406.5" style="enable-background:new 0 0 406.5 406.5;" xml:space="preserve"><g><g><path fill="#fff" d="M231.5,95.8h-61c-15.4,0-28,12.6-28,28V200c0,13.8,10.1,25.2,23.2,27.6v69.6h19.6l0-88.7h-14.8c-4.6,0-8.4-3.9-8.4-8.4v-76.1c0-4.6,3.9-8.4,8.4-8.4h61c4.6,0,8.4,3.9,8.4,8.4V200c0,4.6-3.9,8.4-8.4,8.4h-14.8v88.7h19.6v-69.6c13.1-2.3,23.2-13.8,23.2-27.6v-76.1C259.6,108.4,246.9,95.8,231.5,95.8z"/><g><path fill="#fff" d="M73.1,406.5H53.4v-38.3c0-5.4,4.4-9.8,9.8-9.8h80.5v-31.6c0-5.4,4.4-9.8,9.8-9.8h99.5c5.4,0,9.8,4.4,9.8,9.8v31.2h80.4c5.4,0,9.8,4.4,9.8,9.8v38.6h-19.6v-28.8h-80.4c-5.4,0-9.8-4.4-9.8-9.8v-31.2h-79.9v31.6c0,5.4-4.4,9.8-9.8,9.8H73.1V406.5z"/></g></g><path fill="#fff" d="M201,0c-21.7,0-39.3,17.6-39.3,39.3c0,21.7,17.6,39.3,39.3,39.3c21.7,0,39.3-17.6,39.3-39.3C240.3,17.6,222.7,0,201,0z M201,59c-10.9,0-19.7-8.8-19.7-19.7c0-10.9,8.8-19.7,19.7-19.7c10.9,0,19.7,8.8,19.7,19.7C220.7,50.2,211.9,59,201,59z"/></g></svg>