 <svg height="30" width="30" version="1.1" id="Layer_1" xmlns="http://www.w3.org/2000/svg" xmlns:xlink="http://www.w3.org/1999/xlink" x="0px" y="0px" viewBox="0 0 406.5 406.5" style="enable-background:new 0 0 406.5 406.5;" xml:space="preserve"><g><path fill="#fff" d="M369,57.3H37.4C21,57.3,7.7,70.7,7.7,87.1v232.3c0,16.4,13.4,29.8,29.7,29.8H369c16.4,0,29.8-13.4,29.8-29.8V87.1C398.8,70.7,385.4,57.3,369,57.3z M108.7,78.1h181L252,108.9c-5.7-3.9-12.7-6.1-20.1-6.1c-19.9,0-36.1,16.2-36.1,36.1c0,4.8,1,9.4,2.7,13.6L179,168.4c-1.5,1.2-2.5,2.7-3.1,4.4c-0.8,1.5-1.3,3.1-1.3,4.9V204h-65.9V78.1z M247.1,138.9c0,8.4-6.8,15.2-15.2,15.2s-15.2-6.8-15.2-15.2c0-8.4,6.8-15.2,15.2-15.2S247.1,130.5,247.1,138.9z M108.7,224.9h65.9v31.4h-65.9V224.9z M28.4,87.1c0-4.8,4.1-8.9,8.9-8.9h50.5v178.2H28.4V87.1z M378,319.4c0,4.8-4.1,8.9-8.9,8.9H37.4c-4.9,0-8.9-4.1-8.9-8.9v-42.2H378V319.4z M378,256.3h-55.4v-91.6h32.4v-20.9h-42.7c-5.1,0-9.4,3.7-10.3,8.6c-0.2,0.7-0.3,1.5-0.3,2.3v48h-43.3v20.9h43.3v32.6H195.5v-74.4l16.1-13.1c5.8,3.9,12.8,6.3,20.3,6.3c19.9,0,36.1-16.2,36.1-36.1c0-4.9-1-9.6-2.8-13.9l57.5-46.9H369c4.9,0,8.9,4.1,8.9,8.9V256.3z"/><path fill="#fff" d="M182.9,313.3h40.5c5.8,0,10.4-4.7,10.4-10.4c0-5.8-4.7-10.4-10.4-10.4h-40.5c-5.8,0-10.4,4.7-10.4,10.4C172.5,308.6,177.1,313.3,182.9,313.3z"/></g></svg>