 <svg height="30" width="30" version="1.1" id="Layer_1" xmlns="http://www.w3.org/2000/svg" xmlns:xlink="http://www.w3.org/1999/xlink" x="0px" y="0px" viewBox="0 0 406.5 406.5" style="enable-background:new 0 0 406.5 406.5;" xml:space="preserve"><g><g><path fill="#fff" d="M62.4,194.7h37v-23h-37c-25.6,0-46.5,20.9-46.5,46.5v64.7c0,21.2,14.4,39.2,34,44.8v78.8h23l0-100H62.4c-13,0-23.6-10.6-23.6-23.6v-64.7C38.9,205.2,49.4,194.7,62.4,194.7z"/><path fill="#fff" d="M344.1,171.7h-37.6v23h37.6c13,0,23.6,10.6,23.6,23.5v64.7c0,13-10.6,23.6-23.6,23.6h-10.4l0,100h23v-78.8c19.5-5.5,34-23.5,34-44.8v-64.7C390.6,192.6,369.7,171.7,344.1,171.7z"/><path fill="#fff" d="M283.4,171.7c-0.3-5-1.4-9.8-3.1-14.3c-3.8-9.6-10.7-17.6-19.5-22.9c-7-4.2-15.1-6.6-23.8-6.6h-68c-8.7,0-16.8,2.5-23.8,6.6c-8.8,5.3-15.7,13.3-19.5,22.9c-1.8,4.5-2.8,9.3-3.1,14.3c-0.1,0.9-0.1,1.8-0.1,2.8v88.8c0,6,1.2,11.7,3.3,17c3.6,9.1,10,16.8,18.2,22.1c0.4,0.3,0.9,0.5,1.3,0.8c3.5,2.1,7.2,3.7,11.2,4.9v98.5h23l0-119.7h-2.5h-8c-5.6,0-10.8-2.1-14.8-5.4c-5.3-4.3-8.7-10.8-8.7-18.1v-88.8c0-0.1,0-0.2,0-0.3c0.1-12.9,10.6-23.3,23.5-23.3h68c13,0,23.5,10.5,23.5,23.5c0,0,0,0,0,0.1v88.8c0,7.1-3.2,13.4-8.2,17.7c-4.1,3.6-9.5,5.9-15.4,5.9h-7.4h-3l0,119.7h23V308c4-1.1,7.8-2.8,11.2-4.8c0.5-0.3,1.1-0.6,1.6-1c8-5.3,14.3-12.9,17.9-21.9c2.1-5.3,3.3-11,3.3-17v-88.8C283.5,173.5,283.4,172.6,283.4,171.7z"/></g><path fill="#fff" d="M203,108.2c29.9,0,54.1-24.2,54.1-54.1C257.1,24.2,232.8,0,203,0c-29.9,0-54.1,24.2-54.1,54.1C148.9,84,173.1,108.2,203,108.2z M203,23c17.2,0,31.1,14,31.1,31.1c0,17.2-14,31.1-31.1,31.1s-31.1-14-31.1-31.1C171.8,36.9,185.8,23,203,23z"/><path fill="#fff" d="M327.7,152c29.9,0,54.1-24.2,54.1-54.1s-24.2-54.1-54.1-54.1c-29.9,0-54.1,24.2-54.1,54.1S297.8,152,327.7,152z M327.7,66.8c17.2,0,31.1,14,31.1,31.1c0,17.2-14,31.1-31.1,31.1s-31.1-14-31.1-31.1C296.6,80.7,310.5,66.8,327.7,66.8z"/><path fill="#fff" d="M78.8,152c29.9,0,54.1-24.2,54.1-54.1s-24.2-54.1-54.1-54.1c-29.9,0-54.1,24.2-54.1,54.1S48.9,152,78.8,152z M78.8,66.8c17.2,0,31.1,14,31.1,31.1c0,17.2-14,31.1-31.1,31.1c-17.2,0-31.1-14-31.1-31.1C47.7,80.7,61.6,66.8,78.8,66.8z"/></g></svg>